<svg viewBox="0 0 246 246" xmlns="http://www.w3.org/2000/svg"><path d="M123 0l90 10v163q0 30-90 73-90-43-90-73V10z" fill="#f55d70"/><path d="M131 212a1.22 1.22 0 0 1 .9.8 1.31 1.31 0 0 1-.3 1.2l-3.5 3.6.8 5.1a1.37 1.37 0 0 1-.4 1.2 1 1 0 0 1-1.2.1l-4.3-2.4-4.3 2.4a1.06 1.06 0 0 1-1.2-.1 1.29 1.29 0 0 1-.4-1.2l.8-5.1-3.5-3.6a1.31 1.31 0 0 1-.3-1.2 1.22 1.22 0 0 1 .9-.8l4.9-.7 2.2-4.6a1.13 1.13 0 0 1 2 0l2.2 4.6zm21.4-9c.3 0 .5.3.6.5a.78.78 0 0 1-.2.8l-2.3 2.4.6 3.4a1.14 1.14 0 0 1-.3.8.75.75 0 0 1-.8.1l-2.9-1.6-2.9 1.6a.75.75 0 0 1-.8-.1 1.14 1.14 0 0 1-.3-.8l.6-3.4-2.3-2.4a.78.78 0 0 1-.2-.8.63.63 0 0 1 .6-.5l3.2-.5 1.4-3.1a.84.84 0 0 1 .7-.4 1 1 0 0 1 .7.4l1.4 3.1zm-48 0c.3 0 .5.3.6.5a.78.78 0 0 1-.2.8l-2.3 2.4.6 3.4a1.14 1.14 0 0 1-.3.8.75.75 0 0 1-.8.1l-2.9-1.6-2.9 1.6a.75.75 0 0 1-.8-.1 1.14 1.14 0 0 1-.3-.8l.6-3.4-2.3-2.4a.78.78 0 0 1-.2-.8.63.63 0 0 1 .6-.5l3.2-.5 1.4-3.1a.84.84 0 0 1 .7-.4 1 1 0 0 1 .7.4l1.4 3.1z" fill="#fff"/><path d="M216 199v-32h30l-7 16 7 16zm-186 0H0l7-16-7-16h30z" fill="#43474e"/><path d="M216 191h14l-14 8zm-186 0v8l-14-8z" fill="#373b42"/><path d="M230 159v32H16v-32z" fill="#5b5e64"/><path d="M41.8 172.5l-2.3 1.3-1-1.8 3.7-2.2h1.9v11h-2.3zm9.3-2.9c3.1 0 4.7 2.7 4.7 5.6s-1.6 5.7-4.7 5.7-4.7-2.7-4.7-5.6 1.5-5.7 4.7-5.7zm0 9.1c1.7 0 2.4-2 2.4-3.5s-.7-3.4-2.4-3.4-2.4 2-2.4 3.4.6 3.5 2.4 3.5zm11.1-9.1c3.1 0 4.7 2.7 4.7 5.6s-1.6 5.7-4.7 5.7-4.7-2.7-4.7-5.6 1.5-5.7 4.7-5.7zm0 9.1c1.7 0 2.4-2 2.4-3.5s-.7-3.4-2.4-3.4-2.4 2-2.4 3.4.6 3.5 2.4 3.5zm10.1-6.6a2.5 2.5 0 1 1 2.5 2.5 2.48 2.48 0 0 1-2.5-2.5zm1.2 8.6l7.1-11h1.9l-7.1 11zm.4-8.6a.9.9 0 1 0 .9-.9 1 1 0 0 0-.9.9zm4.9 6.2a2.5 2.5 0 1 1 2.5 2.5 2.48 2.48 0 0 1-2.5-2.5zm1.6 0a.9.9 0 1 0 .9-.9.9.9 0 0 0-.9.9zm19.5-2.6a5 5 0 0 1-5.2 5.2 5.49 5.49 0 0 1-5.7-5.6 5.7 5.7 0 0 1 5.7-5.7c2.7 0 4.5 1.6 4.9 3.3l-2.2.7a2.79 2.79 0 0 0-2.7-1.9 3.46 3.46 0 0 0-3.4 3.5 3.39 3.39 0 0 0 3.4 3.5 2.65 2.65 0 0 0 2.8-1.8h-3.3v-2.1h5.7zm3.8 2.7l-.9 2.4h-2.3l4.2-11h2.7l4.2 11h-2.3l-.9-2.4zm3.9-2.1L106 172l-1.6 4.3zm11.7 4.4l-2.1-3.9h-1.7v3.9h-2.3v-11h4.3c2.1 0 3.9 1.1 3.9 3.5a3.07 3.07 0 0 1-2.1 3.1l2.3 4.4zm-3.8-6h1.9c.8 0 1.8-.4 1.8-1.4s-.9-1.4-1.8-1.4h-1.9zm10.2 3.7l-.9 2.4h-2.3l4.2-11h2.7l4.2 11h-2.3l-.9-2.4zm4-2.1l-1.6-4.3-1.6 4.3zm7.8-3.1v7.6h-2.2v-11h2.6l4.8 7.2v-7.2h2.2v11h-2.3zm12.6 7.5V172h-3.3v-2.2h8.8v2.2h-3.3v8.8h-2.2zm9.7-10.9v11h-2.3v-11zm2.2 10.9v-2l5.5-6.9h-5.2v-2.1h8.1v1.9l-5.4 6.9h5.6v2.1H162zm12.6-2.3l-.9 2.4h-2.3l4.2-11h2.7l4.2 11h-2.3l-.9-2.4zm3.9-2.1l-1.6-4.3-1.6 4.3zm8.9 4.4h-3.3v-11h3.4c3.8 0 6.2 2 6.2 5.5 0 3.3-2.4 5.5-6.3 5.5zm.1-8.8h-1.1v6.7h1.1c2.3 0 3.8-1.2 3.8-3.4s-1.6-3.3-3.8-3.3zm13.5-2.3a5.61 5.61 0 0 1 5.7 5.6 5.7 5.7 0 0 1-11.4.1 5.57 5.57 0 0 1 5.7-5.7zm-.1 9.1a3.46 3.46 0 0 0 3.4-3.5 3.37 3.37 0 0 0-3.4-3.4 3.44 3.44 0 0 0-3.4 3.4 3.52 3.52 0 0 0 3.4 3.5zM96.27 148.29h-5.68v-18.8h5.76c6.55 0 10.6 3.46 10.6 9.37.05 5.59-4.03 9.43-10.68 9.43zm.17-15.12h-2v11.45h1.92c3.89 0 6.58-2.07 6.58-5.76s-2.8-5.69-6.5-5.69zm13.78 15.12v-18.8h3.89v18.8zm3.48-20.52h-3.07l2.56-4.49h4.32zm8.06 16.49l-1.49 4h-4l7.18-18.8h4.68l7.2 18.8h-4l-1.51-4zm6.75-3.6l-2.74-7.4-2.74 7.4zm7.34 2.08l3.62-.86a3.77 3.77 0 0 0 4 3.19c1.8 0 2.83-1 2.83-2.11 0-.94-.84-1.7-2.14-2l-2.66-.53c-3-.6-5-2.54-5-5.4 0-3.36 3-5.85 6.65-5.85 4.34 0 6.46 2.59 6.79 5l-3.53 1.05a3.09 3.09 0 0 0-3.29-2.56c-1.6 0-2.73 1-2.73 2.09 0 .88.57 1.68 1.94 1.94l2.62.48c3.48.62 5.3 2.86 5.3 5.52 0 2.9-2.44 5.86-6.88 5.86s-6.92-2.26-7.52-5.82zM95.8 116.3c-8.5 0-18-4.6-19.7-15.5l8.3-1.8c1 7.4 7.6 9.5 11.6 9.5 5.8 0 10.4-3.4 10.4-8.3 0-5.4-4.1-8.6-10.2-8.6h-5.9v-7.8h5.4c5.7 0 9.6-3.8 9.6-8.2 0-4.8-3.4-8.1-9.6-8.1-5.4 0-10 2.9-10.9 8.8l-8.2-1.8c1.3-7.1 7-14.7 19.1-14.7 11.8 0 18.6 6.5 18.6 14.8 0 6.7-3.6 10.4-8.3 12.6 5.3 2 9.5 5.7 9.5 12.7-.1 8.7-8 16.4-19.7 16.4zM123 88.2c0-15.7 9.3-28.1 23.1-28.1s23 12.3 23 28-9.2 28.2-23.1 28.2-23-12.3-23-28.1zm8.9-.1c0 11.1 5.5 20.3 14.1 20.3s14.1-9.1 14.1-20.2c0-10.9-5.5-20.2-14.2-20.2s-14 9-14 20.1zm-60-50.3l-2.4-4.5h-1.9v4.5H65V25.3h4.9c2.4 0 4.4 1.3 4.4 4a3.65 3.65 0 0 1-2.4 3.6l2.7 5h-2.7zm-4.2-6.9h2.2c1 0 2-.4 2-1.6s-1-1.6-2-1.6h-2.1v3.2zm9.9-5.6h8.2v2.4h-5.7v2.5h5.1v2.4h-5.1v2.7h5.7v2.4h-8.2zm11.5 0h8.2v2.4h-5.7v2.5h5.1v2.4h-5.1v2.7h5.7v2.4h-8.2zm22.9 4.3l-3.6 8.3h-1.7l-3.5-8.2v8.2h-2.5V25.3h3.3l3.6 8.5 3.6-8.5h3.4v12.5H112zm11.6 8.2h-5.3V25.3h5.2c2 0 4 1.1 4 3.3a3 3 0 0 1-1.8 2.7c1.5.6 2.3 1.4 2.3 3.1.1 2.5-2.2 3.4-4.4 3.4zm-.4-10.1h-2.3v2.7h2.1c.9 0 2-.2 2-1.4 0-1-.9-1.3-1.8-1.3zm.3 4.9h-2.6v2.8h2.7c.9 0 2-.3 2-1.4s-1.1-1.4-2.1-1.4zm13.4-7.5a6.4 6.4 0 0 1 6.5 6.4 6.5 6.5 0 1 1-6.5-6.4zm0 10.4a3.93 3.93 0 0 0 3.9-4 3.84 3.84 0 0 0-3.9-3.9 4 4 0 0 0 0 7.9zm9.5-10.2h2.6v10.1h5.4v2.5h-7.9V25.3zm9.5 8.8l2.4-.6a2.46 2.46 0 0 0 2.7 2.1c1.2 0 1.9-.6 1.9-1.4 0-.6-.6-1.1-1.4-1.3l-1.8-.4c-2-.4-3.3-1.7-3.3-3.6a4.16 4.16 0 0 1 4.4-3.9c2.9 0 4.3 1.7 4.5 3.3l-2.4.7a2 2 0 0 0-2.2-1.7 1.62 1.62 0 0 0-1.8 1.4c0 .6.4 1.1 1.3 1.3l1.7.3c2.3.4 3.5 1.9 3.5 3.7s-1.6 3.9-4.6 3.9-4.5-1.4-4.9-3.8zm18.5-9a6.4 6.4 0 0 1 6.5 6.4 6.5 6.5 0 0 1-13 0 6.4 6.4 0 0 1 6.5-6.4zm-.1 10.4a3.93 3.93 0 0 0 3.9-4 3.84 3.84 0 0 0-3.9-3.9 3.9 3.9 0 0 0-3.9 3.9 4.06 4.06 0 0 0 3.9 4z" fill="#fff"/><path d="M64.2 49.7h115.6" fill="none" stroke="#fff" stroke-miterlimit="10" stroke-width="2"/></svg>